# xmcd
#
# Track frame offsets:
#	150
#	15675
#	28659
#	41751
#	55635
#	70059
#	84099
#	100431
#	114735
#	130131
#
# Disc length: 1981 seconds
#
# Revision: 0
# Processed by: cddbd v1.5.1PL2 Copyright (c) Steve Scherf et al.
# Submitted via: EasyCDDAExtractor 7.1.2.1
#
DISCID=7c07bb0a
DTITLE=Cramer Brothers Band - Live at Kempton Fairgrounds
DYEAR=2001
DGENRE=Country
TTITLE0=Write This Down
TTITLE1=Pop A Top
TTITLE2=San Antonio Rose
TTITLE3=He Stopped Loving Her Today
TTITLE4=Faded Love
TTITLE5=Don't You Ever Get Tired Of Hurting Me
TTITLE6=Flowers On The Wall
TTITLE7=Rock My Baby
TTITLE8=Maiden's Prayer
TTITLE9=Murder On Music Row
EXTD=
EXTT0=
EXTT1=
EXTT2=
EXTT3=
EXTT4=
EXTT5=
EXTT6=
EXTT7=
EXTT8=
EXTT9=
PLAYORDER=
